<svg width="28" height="31" viewBox="0 0 28 31" fill="none" xmlns="http://www.w3.org/2000/svg">
<g filter="url(#filter0_f_95_187)">
<path d="M5 12C5 4 8 1 16 1C24 1 27 4 27 12C27 20 24 23 16 23C8 23 5 20 5 12Z" fill="url(#paint0_linear_95_187)" fill-opacity="0.56"/>
</g>
<path d="M1 18.9995C1 10.9995 4 7.99951 12 7.99951C20 7.99951 23 10.9995 23 18.9995C23 26.9995 20 29.9995 12 29.9995C4 29.9995 1 26.9995 1 18.9995Z" fill="#00984B"/>
<path d="M11.28 18.7V17.7C11.28 17.4136 11.3938 17.1389 11.5963 16.9363C11.7989 16.7338 12.0736 16.62 12.36 16.62H13.92C14.203 16.62 14.4747 16.509 14.6767 16.3108C14.8787 16.1125 14.9948 15.843 15 15.56V14.08C15 13.7936 14.8862 13.5189 14.6837 13.3163C14.4811 13.1138 14.2064 13 13.92 13H13C11.9391 13 10.9217 13.4214 10.1716 14.1716C9.42143 14.9217 9 15.9391 9 17V21C9 22.0609 9.42143 23.0783 10.1716 23.8284C10.9217 24.5786 11.9391 25 13 25H13.89C14.0343 25.004 14.178 24.979 14.3125 24.9266C14.447 24.8741 14.5697 24.7952 14.6731 24.6945C14.7766 24.5938 14.8589 24.4734 14.915 24.3403C14.9712 24.2073 15.0001 24.0644 15 23.92V22.44C15 22.1536 14.8862 21.8789 14.6837 21.6763C14.4811 21.4738 14.2064 21.36 13.92 21.36H12.36C12.0736 21.36 11.7989 21.2462 11.5963 21.0437C11.3938 20.8411 11.28 20.5664 11.28 20.28V18.7Z" fill="white"/>
<defs>
<filter id="filter0_f_95_187" x="4" y="0" width="24" height="24" filterUnits="userSpaceOnUse" color-interpolation-filters="sRGB">
<feFlood flood-opacity="0" result="BackgroundImageFix"/>
<feBlend mode="normal" in="SourceGraphic" in2="BackgroundImageFix" result="shape"/>
<feGaussianBlur stdDeviation="0.5" result="effect1_foregroundBlur_95_187"/>
</filter>
<linearGradient id="paint0_linear_95_187" x1="27" y1="0.999998" x2="13.5" y2="15" gradientUnits="userSpaceOnUse">
<stop stop-color="#00984B"/>
<stop offset="1" stop-color="white" stop-opacity="0"/>
</linearGradient>
</defs>
</svg>
