<svg width="29" height="29" viewBox="0 0 29 29" fill="none" xmlns="http://www.w3.org/2000/svg">
<g filter="url(#filter0_f_95_199)">
<path d="M6 12C6 4 9 1 17 1C25 1 28 4 28 12C28 20 25 23 17 23C9 23 6 20 6 12Z" fill="url(#paint0_linear_95_199)" fill-opacity="0.56"/>
</g>
<path d="M1 17C1 9 4 6 12 6C20 6 23 9 23 17C23 25 20 28 12 28C4 28 1 25 1 17Z" fill="#00ABE8"/>
<path fill-rule="evenodd" clip-rule="evenodd" d="M17 12.0001L6.24996 16.5401C6.17199 16.5713 6.10516 16.6251 6.05808 16.6946C6.011 16.7641 5.98584 16.8461 5.98584 16.9301C5.98584 17.0141 6.011 17.0961 6.05808 17.1656C6.10516 17.2351 6.17199 17.2889 6.24996 17.3201L8.24996 17.9501C8.56641 18.0478 8.90091 18.0725 9.22828 18.0223C9.55565 17.972 9.86736 17.8482 10.14 17.6601L14.67 14.5301C14.7023 14.5134 14.7394 14.5082 14.7751 14.5155C14.8108 14.5227 14.8429 14.5419 14.8663 14.5698C14.8896 14.5978 14.9026 14.6329 14.9033 14.6693C14.904 14.7057 14.8922 14.7413 14.87 14.7701L11.4 18.0901C11.3117 18.1767 11.2436 18.2818 11.2007 18.3978C11.1577 18.5137 11.1409 18.6378 11.1514 18.761C11.1619 18.8842 11.1995 19.0036 11.2614 19.1106C11.3234 19.2177 11.4083 19.3097 11.51 19.3801L15.24 21.9001C15.3565 21.9769 15.4904 22.0234 15.6295 22.0354C15.7685 22.0475 15.9084 22.0247 16.0365 21.9691C16.1645 21.9135 16.2767 21.8269 16.3628 21.7171C16.449 21.6073 16.5064 21.4777 16.53 21.3401L18 12.8001C18.0226 12.6711 18.0101 12.5384 17.9639 12.4159C17.9176 12.2934 17.8392 12.1856 17.737 12.1038C17.6347 12.022 17.5124 11.9692 17.3827 11.951C17.253 11.9327 17.1208 11.9497 17 12.0001Z" fill="white"/>
<defs>
<filter id="filter0_f_95_199" x="5" y="0" width="24" height="24" filterUnits="userSpaceOnUse" color-interpolation-filters="sRGB">
<feFlood flood-opacity="0" result="BackgroundImageFix"/>
<feBlend mode="normal" in="SourceGraphic" in2="BackgroundImageFix" result="shape"/>
<feGaussianBlur stdDeviation="0.5" result="effect1_foregroundBlur_95_199"/>
</filter>
<linearGradient id="paint0_linear_95_199" x1="28" y1="0.999998" x2="14.5" y2="15" gradientUnits="userSpaceOnUse">
<stop stop-color="#2F98F5"/>
<stop offset="1" stop-color="#2F98F5" stop-opacity="0"/>
</linearGradient>
</defs>
</svg>
