<svg width="97" height="109" viewBox="0 0 97 109" fill="none" xmlns="http://www.w3.org/2000/svg">
<g filter="url(#filter0_b_95_242)">
<path d="M80.3269 24.9323C87.3438 24.8414 93.6821 30.0151 94.6944 37.3038C95.1315 40.4421 94.4758 43.4213 93.2105 46.2981C91.8301 49.4365 89.863 52.1996 87.6314 54.7921C85.5493 57.2028 83.2487 59.3973 80.787 61.4213C80.4189 61.7283 80.1888 61.6942 79.8437 61.41C75.5415 57.8395 71.6995 53.8711 68.8467 49.0499C67.4433 46.6734 66.362 44.1604 65.9824 41.3973C65.3727 37.0764 66.4655 33.1989 69.3413 29.8786C71.872 26.945 75.1504 25.3531 79.027 24.9437C79.0845 24.9323 79.142 24.9323 79.1996 24.9323C79.5792 24.9323 79.9473 24.9323 80.3269 24.9323Z" fill="url(#paint0_linear_95_242)"/>
</g>
<g filter="url(#filter1_f_95_242)">
<path d="M48.0707 28.7919C57.7783 28.6638 66.547 35.9525 67.9474 46.2207C68.5521 50.642 67.645 54.839 65.8945 58.8918C63.9848 63.3131 61.2635 67.2058 58.1762 70.8581C55.2957 74.2542 52.1129 77.3459 48.7073 80.1973C48.198 80.6298 47.8798 80.5817 47.4023 80.1812C41.4505 75.1512 36.1352 69.5606 32.1885 62.7685C30.247 59.4205 28.7511 55.8802 28.2259 51.9876C27.3825 45.9003 28.8943 40.4378 32.8728 35.7602C36.3739 31.6273 40.9094 29.3846 46.2724 28.8079C46.352 28.7919 46.4316 28.7919 46.5112 28.7919C47.0363 28.7919 47.5456 28.7919 48.0707 28.7919Z" fill="black" fill-opacity="0.17"/>
</g>
<g filter="url(#filter2_b_95_242)">
<path d="M60.7261 23.0016C70.2085 22.8787 78.7737 29.8702 80.1416 39.7198C80.7323 43.9608 79.8463 47.9867 78.1363 51.8743C76.271 56.1153 73.6128 59.8492 70.5971 63.3527C67.7835 66.6103 64.6745 69.5759 61.3479 72.3111C60.8504 72.7259 60.5395 72.6798 60.0732 72.2957C54.2594 67.4708 49.0674 62.108 45.2123 55.5929C43.3158 52.3814 41.8546 48.9855 41.3416 45.2515C40.5178 39.4125 41.9945 34.1727 45.8807 29.6858C49.3006 25.7214 53.7309 23.5701 58.9695 23.017C59.0472 23.0016 59.125 23.0016 59.2027 23.0016C59.7157 23.0016 60.2131 23.0016 60.7261 23.0016Z" fill="white" fill-opacity="0.4"/>
<path d="M60.7261 23.5016V23.5016L60.7326 23.5016C69.9691 23.3818 78.314 30.1947 79.6464 39.7886L79.6464 39.7888C80.2209 43.9131 79.3628 47.8439 77.6787 51.673C75.8401 55.8529 73.2152 59.5447 70.2184 63.0262C67.4258 66.2593 64.338 69.2053 61.0303 71.9248L61.0276 71.9271C60.8149 72.1045 60.7331 72.104 60.7183 72.1034C60.6913 72.1023 60.6055 72.0863 60.392 71.9105C54.6048 67.1075 49.4585 61.7871 45.6426 55.3382C43.7667 52.1616 42.3379 48.8299 41.837 45.1835L41.8367 45.1817C41.0325 39.4818 42.4696 34.3878 46.2587 30.0132L46.2593 30.0124C49.5889 26.1526 53.8984 24.0552 59.022 23.5142L59.0444 23.5118L59.0665 23.5075C59.0884 23.5031 59.1173 23.5016 59.2027 23.5016H59.2057H59.2087H59.2117H59.2147H59.2177H59.2207H59.2237H59.2267H59.2297H59.2327H59.2357H59.2387H59.2417H59.2447H59.2477H59.2507H59.2537H59.2567H59.2597H59.2627H59.2657H59.2687H59.2717H59.2747H59.2777H59.2807H59.2837H59.2867H59.2897H59.2927H59.2957H59.2987H59.3017H59.3047H59.3077H59.3107H59.3137H59.3167H59.3197H59.3227H59.3256H59.3286H59.3316H59.3346H59.3376H59.3406H59.3436H59.3466H59.3496H59.3526H59.3556H59.3585H59.3615H59.3645H59.3675H59.3705H59.3735H59.3765H59.3795H59.3824H59.3854H59.3884H59.3914H59.3944H59.3974H59.4004H59.4033H59.4063H59.4093H59.4123H59.4153H59.4183H59.4213H59.4242H59.4272H59.4302H59.4332H59.4362H59.4391H59.4421H59.4451H59.4481H59.4511H59.4541H59.457H59.46H59.463H59.466H59.469H59.4719H59.4749H59.4779H59.4809H59.4839H59.4868H59.4898H59.4928H59.4958H59.4987H59.5017H59.5047H59.5077H59.5106H59.5136H59.5166H59.5196H59.5226H59.5255H59.5285H59.5315H59.5345H59.5374H59.5404H59.5434H59.5464H59.5493H59.5523H59.5553H59.5582H59.5612H59.5642H59.5672H59.5701H59.5731H59.5761H59.5791H59.582H59.585H59.588H59.5909H59.5939H59.5969H59.5999H59.6028H59.6058H59.6088H59.6117H59.6147H59.6177H59.6206H59.6236H59.6266H59.6296H59.6325H59.6355H59.6385H59.6414H59.6444H59.6474H59.6503H59.6533H59.6563H59.6592H59.6622H59.6652H59.6681H59.6711H59.6741H59.677H59.68H59.683H59.6859H59.6889H59.6919H59.6948H59.6978H59.7008H59.7037H59.7067H59.7097H59.7126H59.7156H59.7186H59.7215H59.7245H59.7275H59.7304H59.7334H59.7363H59.7393H59.7423H59.7452H59.7482H59.7512H59.7541H59.7571H59.7601H59.763H59.766H59.7689H59.7719H59.7749H59.7778H59.7808H59.7838H59.7867H59.7897H59.7927H59.7956H59.7986H59.8015H59.8045H59.8075H59.8104H59.8134H59.8164H59.8193H59.8223H59.8252H59.8282H59.8312H59.8341H59.8371H59.84H59.843H59.846H59.8489H59.8519H59.8549H59.8578H59.8608H59.8637H59.8667H59.8697H59.8726H59.8756H59.8785H59.8815H59.8845H59.8874H59.8904H59.8933H59.8963H59.8993H59.9022H59.9052H59.9081H59.9111H59.9141H59.917H59.92H59.9229H59.9259H59.9289H59.9318H59.9348H59.9377H59.9407H59.9437H59.9466H59.9496H59.9525H59.9555H59.9585H59.9614H59.9644H59.9674H59.9703H59.9733H59.9762H59.9792H59.9822H59.9851H59.9881H59.991H59.994H59.997H59.9999H60.0029H60.0058H60.0088H60.0118H60.0147H60.0177H60.0206H60.0236H60.0266H60.0295H60.0325H60.0354H60.0384H60.0414H60.0443H60.0473H60.0502H60.0532H60.0562H60.0591H60.0621H60.065H60.068H60.071H60.0739H60.0769H60.0799H60.0828H60.0858H60.0887H60.0917H60.0947H60.0976H60.1006H60.1035H60.1065H60.1095H60.1124H60.1154H60.1184H60.1213H60.1243H60.1272H60.1302H60.1332H60.1361H60.1391H60.1421H60.145H60.148H60.1509H60.1539H60.1569H60.1598H60.1628H60.1658H60.1687H60.1717H60.1746H60.1776H60.1806H60.1835H60.1865H60.1895H60.1924H60.1954H60.1984H60.2013H60.2043H60.2073H60.2102H60.2132H60.2161H60.2191H60.2221H60.225H60.228H60.231H60.2339H60.2369H60.2399H60.2428H60.2458H60.2488H60.2517H60.2547H60.2577H60.2606H60.2636H60.2666H60.2695H60.2725H60.2755H60.2784H60.2814H60.2844H60.2874H60.2903H60.2933H60.2963H60.2992H60.3022H60.3052H60.3081H60.3111H60.3141H60.317H60.32H60.323H60.326H60.3289H60.3319H60.3349H60.3378H60.3408H60.3438H60.3468H60.3497H60.3527H60.3557H60.3586H60.3616H60.3646H60.3676H60.3705H60.3735H60.3765H60.3795H60.3824H60.3854H60.3884H60.3913H60.3943H60.3973H60.4003H60.4032H60.4062H60.4092H60.4122H60.4152H60.4181H60.4211H60.4241H60.4271H60.43H60.433H60.436H60.439H60.4419H60.4449H60.4479H60.4509H60.4539H60.4568H60.4598H60.4628H60.4658H60.4688H60.4717H60.4747H60.4777H60.4807H60.4837H60.4866H60.4896H60.4926H60.4956H60.4986H60.5016H60.5045H60.5075H60.5105H60.5135H60.5165H60.5195H60.5224H60.5254H60.5284H60.5314H60.5344H60.5374H60.5404H60.5433H60.5463H60.5493H60.5523H60.5553H60.5583H60.5613H60.5643H60.5672H60.5702H60.5732H60.5762H60.5792H60.5822H60.5852H60.5882H60.5912H60.5942H60.5972H60.6001H60.6031H60.6061H60.6091H60.6121H60.6151H60.6181H60.6211H60.6241H60.6271H60.6301H60.6331H60.6361H60.6391H60.6421H60.6451H60.6481H60.6511H60.654H60.657H60.66H60.663H60.666H60.669H60.672H60.675H60.678H60.681H60.684H60.687H60.69H60.693H60.696H60.6991H60.7021H60.7051H60.7081H60.7111H60.7141H60.7171H60.7201H60.7231H60.7261Z" stroke="url(#paint1_linear_95_242)"/>
</g>
<g filter="url(#filter3_b_95_242)">
<circle cx="60.8023" cy="42.2971" r="8.87591" fill="white" fill-opacity="0.4"/>
<circle cx="60.8023" cy="42.2971" r="8.37591" stroke="url(#paint2_linear_95_242)"/>
</g>
<defs>
<filter id="filter0_b_95_242" x="55.189" y="14.301" width="50.2709" height="57.9668" filterUnits="userSpaceOnUse" color-interpolation-filters="sRGB">
<feFlood flood-opacity="0" result="BackgroundImageFix"/>
<feGaussianBlur in="BackgroundImageFix" stdDeviation="5.31507"/>
<feComposite in2="SourceAlpha" operator="in" result="effect1_backgroundBlur_95_242"/>
<feBlend mode="normal" in="SourceGraphic" in2="effect1_backgroundBlur_95_242" result="shape"/>
</filter>
<filter id="filter1_f_95_242" x="0" y="0.790253" width="96.1345" height="107.712" filterUnits="userSpaceOnUse" color-interpolation-filters="sRGB">
<feFlood flood-opacity="0" result="BackgroundImageFix"/>
<feBlend mode="normal" in="SourceGraphic" in2="BackgroundImageFix" result="shape"/>
<feGaussianBlur stdDeviation="14" result="effect1_foregroundBlur_95_242"/>
</filter>
<filter id="filter2_b_95_242" x="30.4908" y="12.3699" width="60.4638" height="70.8637" filterUnits="userSpaceOnUse" color-interpolation-filters="sRGB">
<feFlood flood-opacity="0" result="BackgroundImageFix"/>
<feGaussianBlur in="BackgroundImageFix" stdDeviation="5.31507"/>
<feComposite in2="SourceAlpha" operator="in" result="effect1_backgroundBlur_95_242"/>
<feBlend mode="normal" in="SourceGraphic" in2="effect1_backgroundBlur_95_242" result="shape"/>
</filter>
<filter id="filter3_b_95_242" x="17.9264" y="-0.578857" width="85.7518" height="85.7518" filterUnits="userSpaceOnUse" color-interpolation-filters="sRGB">
<feFlood flood-opacity="0" result="BackgroundImageFix"/>
<feGaussianBlur in="BackgroundImageFix" stdDeviation="17"/>
<feComposite in2="SourceAlpha" operator="in" result="effect1_backgroundBlur_95_242"/>
<feBlend mode="normal" in="SourceGraphic" in2="effect1_backgroundBlur_95_242" result="shape"/>
</filter>
<linearGradient id="paint0_linear_95_242" x1="87.381" y1="26.3234" x2="69.7394" y2="54.1579" gradientUnits="userSpaceOnUse">
<stop stop-color="#1C1C42"/>
<stop offset="1" stop-color="#2F98F5"/>
</linearGradient>
<linearGradient id="paint1_linear_95_242" x1="42.9702" y1="26.6743" x2="85.6435" y2="34.9993" gradientUnits="userSpaceOnUse">
<stop stop-color="white" stop-opacity="0.43"/>
<stop offset="1" stop-color="white" stop-opacity="0.35"/>
</linearGradient>
<linearGradient id="paint2_linear_95_242" x1="52.7637" y1="34.7361" x2="71.6702" y2="39.4029" gradientUnits="userSpaceOnUse">
<stop stop-color="white" stop-opacity="0.43"/>
<stop offset="1" stop-color="white" stop-opacity="0.35"/>
</linearGradient>
</defs>
</svg>
