<svg
        width="116"
        height="46"
        viewBox="0 0 116 46"
        fill="none"
        xmlns="http://www.w3.org/2000/svg"
        className="header-logo"
      >
        <path
          d="M84.68 23.896C88.3104 23.896 91.2534 21.126 91.2534 23.1926C91.2534 25.2593 88.3104 26.2933 84.68 26.2933C81.0497 26.2933 78.1067 25.2593 78.1067 23.1926C78.1067 21.126 81.0497 23.896 84.68 23.896Z"
          fill="url(#paint0_linear_7_127)"
        />
        <path
          d="M86.2267 17.0133C88.5758 17.0133 90.4801 15.2822 90.4801 13.1467C90.4801 11.0112 88.5758 9.28 86.2267 9.28C83.8777 9.28 81.9734 11.0112 81.9734 13.1467C81.9734 15.2822 83.8777 17.0133 86.2267 17.0133Z"
          fill="url(#paint1_linear_7_127)"
        />
        <path
          d="M61.8667 19.3333C64.0022 19.3333 65.7333 17.429 65.7333 15.08C65.7333 12.7309 64.0022 10.8267 61.8667 10.8267C59.7312 10.8267 58 12.7309 58 15.08C58 17.429 59.7312 19.3333 61.8667 19.3333Z"
          fill="url(#paint2_linear_7_127)"
        />
        <path
          d="M87.8516 42.5333C91.8923 42.5333 91.21 36.8205 91.21 29.7733C91.21 22.7262 91.8923 17.0133 87.8516 17.0133C83.8109 17.0133 84.3134 22.7262 84.3134 29.7733C84.3134 36.8205 83.8109 42.5333 87.8516 42.5333Z"
          fill="url(#paint3_linear_7_127)"
        />
        <path
          d="M97.5095 42.5333C101.101 42.5333 100.495 34.57 100.495 24.7467C100.495 14.9234 101.101 6.95999 97.5095 6.95999C93.9178 6.95999 94.3644 14.9234 94.3644 24.7467C94.3644 34.57 93.9178 42.5333 97.5095 42.5333Z"
          fill="url(#paint4_linear_7_127)"
        />
        <path
          d="M116 3.02386C116 -0.567887 107.691 0.0386744 97.4401 0.0386744C87.1897 0.0386744 78.8801 -0.567887 78.8801 3.02386C78.8801 6.6156 87.1897 6.16896 97.4401 6.16896C107.691 6.16896 116 6.6156 116 3.02386Z"
          fill="url(#paint5_linear_7_127)"
        />
        <path
          d="M59.3775 37.12C65.3328 37.12 58.7317 33.0815 58.7317 28.3834C58.7317 23.6853 65.3328 20.1067 59.3775 20.1067C53.4221 20.1067 54.1627 23.9152 54.1627 28.6133C54.1627 33.3114 53.4221 37.12 59.3775 37.12Z"
          fill="url(#paint6_linear_7_127)"
        />
        <path
          d="M34.0267 42.5333C39.579 42.5333 44.0801 37.8592 44.0801 32.0934C44.0801 26.3275 39.579 21.6534 34.0267 21.6534C28.4744 21.6534 23.9734 26.3275 23.9734 32.0934C23.9734 37.8592 28.4744 42.5333 34.0267 42.5333Z"
          fill="url(#paint7_linear_7_127)"
        />
        <path
          d="M69.9867 26.2933C71.4815 26.2933 72.6934 24.9084 72.6934 23.2C72.6934 21.4916 71.4815 20.1067 69.9867 20.1067C68.4918 20.1067 67.28 21.4916 67.28 23.2C67.28 24.9084 68.4918 26.2933 69.9867 26.2933Z"
          fill="url(#paint8_linear_7_127)"
        />
        <path
          d="M53.9669 42.5333C59.701 42.5333 63.4134 39.1449 63.4134 33.3825C63.4134 27.6202 48.0947 42.5333 52.6052 6.18668C46.871 6.18668 45.6267 24.798 45.6267 30.5603C45.6267 36.3227 48.2327 42.5333 53.9669 42.5333Z"
          fill="url(#paint9_linear_7_127)"
        />
        <path
          d="M62.4735 28.6134C68.2076 28.6134 71.92 27.9645 71.92 26.8611C71.92 25.7576 56.6013 28.6134 61.1118 21.6534C55.3776 21.6534 54.1333 25.2172 54.1333 26.3206C54.1333 27.4241 56.7393 28.6134 62.4735 28.6134Z"
          fill="url(#paint10_linear_7_127)"
        />
        <g filter="url(#filter0_d_7_127)">
          <path
            d="M22.5812 26.2934C24.6313 26.2934 26.2932 24.6254 26.2932 22.5678C26.2932 20.5103 24.6313 22.5678 22.5812 22.5678C20.5311 22.5678 17.0132 21.9295 17.0132 23.9871C17.0132 26.0446 20.5311 26.2934 22.5812 26.2934Z"
            fill="url(#paint11_linear_7_127)"
          />
        </g>
        <path
          d="M13.1466 17.0133C14.855 17.0133 16.2399 15.6284 16.2399 13.92C16.2399 12.2116 14.855 10.8267 13.1466 10.8267C11.4382 10.8267 10.0532 12.2116 10.0532 13.92C10.0532 15.6284 11.4382 17.0133 13.1466 17.0133Z"
          fill="url(#paint12_linear_7_127)"
        />
        <path
          d="M1.51513 45.6267C8.70084 45.6267 23.2 38.0689 23.2 30.8527C23.2 23.6365 17.3748 17.7867 10.1891 17.7867C3.0034 17.7867 15.0363 23.6365 15.0363 30.8527C15.0363 38.0689 -5.67058 45.6267 1.51513 45.6267Z"
          fill="url(#paint13_linear_7_127)"
        />
        <defs>
          <filter
            id="filter0_d_7_127"
            x="13.0132"
            y="21.6534"
            width="17.28"
            height="12.64"
            filterUnits="userSpaceOnUse"
            color-interpolation-filters="sRGB"
          >
            <feFlood flood-opacity="0" result="BackgroundImageFix" />
            <feColorMatrix
              in="SourceAlpha"
              type="matrix"
              values="0 0 0 0 0 0 0 0 0 0 0 0 0 0 0 0 0 0 127 0"
              result="hardAlpha"
            />
            <feOffset dy="4" />
            <feGaussianBlur stdDeviation="2" />
            <feComposite in2="hardAlpha" operator="out" />
            <feColorMatrix
              type="matrix"
              values="0 0 0 0 0 0 0 0 0 0 0 0 0 0 0 0 0 0 0.25 0"
            />
            <feBlend
              mode="normal"
              in2="BackgroundImageFix"
              result="effect1_dropShadow_7_127"
            />
            <feBlend
              mode="normal"
              in="SourceGraphic"
              in2="effect1_dropShadow_7_127"
              result="shape"
            />
          </filter>
          <linearGradient
            id="paint0_linear_7_127"
            x1="78.1072"
            y1="23.1885"
            x2="91.2539"
            y2="23.1885"
            gradientUnits="userSpaceOnUse"
          >
            <stop stop-color="#3261E9" />
            <stop offset="0.9999" stop-color="#444636" />
            <stop offset="1" stop-color="#1C1C42" />
          </linearGradient>
          <linearGradient
            id="paint1_linear_7_127"
            x1="81.9729"
            y1="13.1431"
            x2="90.4795"
            y2="13.1431"
            gradientUnits="userSpaceOnUse"
          >
            <stop stop-color="#3261E9" />
            <stop offset="1" stop-color="#1C1C42" />
          </linearGradient>
          <linearGradient
            id="paint2_linear_7_127"
            x1="57.9995"
            y1="15.076"
            x2="65.7329"
            y2="15.076"
            gradientUnits="userSpaceOnUse"
          >
            <stop stop-color="#3261E9" />
            <stop offset="1" stop-color="#1C1C42" />
          </linearGradient>
          <linearGradient
            id="paint3_linear_7_127"
            x1="80.5358"
            y1="29.7873"
            x2="95.1686"
            y2="29.7873"
            gradientUnits="userSpaceOnUse"
          >
            <stop stop-color="#1C1C42" />
            <stop offset="1" stop-color="#2F98F5" />
          </linearGradient>
          <linearGradient
            id="paint4_linear_7_127"
            x1="91.0066"
            y1="24.7661"
            x2="104.013"
            y2="24.7661"
            gradientUnits="userSpaceOnUse"
          >
            <stop stop-color="#1C1C42" />
            <stop offset="1" stop-color="#2F98F5" />
          </linearGradient>
          <linearGradient
            id="paint5_linear_7_127"
            x1="97.4604"
            y1="9.52678"
            x2="97.4604"
            y2="-3.48007"
            gradientUnits="userSpaceOnUse"
          >
            <stop stop-color="#1C1C42" />
            <stop offset="1" stop-color="#2F98F5" />
          </linearGradient>
          <linearGradient
            id="paint6_linear_7_127"
            x1="48.5952"
            y1="28.6226"
            x2="70.1614"
            y2="28.6226"
            gradientUnits="userSpaceOnUse"
          >
            <stop stop-color="#3261E9" />
            <stop offset="1" stop-color="#1C1C42" />
          </linearGradient>
          <linearGradient
            id="paint7_linear_7_127"
            x1="23.9742"
            y1="32.1047"
            x2="44.0808"
            y2="32.1047"
            gradientUnits="userSpaceOnUse"
          >
            <stop stop-color="#3261E9" />
            <stop offset="1" stop-color="#1C1C42" />
          </linearGradient>
          <linearGradient
            id="paint8_linear_7_127"
            x1="67.2802"
            y1="23.2034"
            x2="72.6936"
            y2="23.2034"
            gradientUnits="userSpaceOnUse"
          >
            <stop stop-color="#3261E9" />
            <stop offset="1" stop-color="#1C1C42" />
          </linearGradient>
          <linearGradient
            id="paint9_linear_7_127"
            x1="43.585"
            y1="32.1111"
            x2="64.3503"
            y2="32.1111"
            gradientUnits="userSpaceOnUse"
          >
            <stop stop-color="#3261E9" />
            <stop offset="1" stop-color="#1C1C42" />
          </linearGradient>
          <linearGradient
            id="paint10_linear_7_127"
            x1="52.0916"
            y1="26.6176"
            x2="72.8569"
            y2="26.6176"
            gradientUnits="userSpaceOnUse"
          >
            <stop stop-color="#3261E9" />
            <stop offset="1" stop-color="#1C1C42" />
          </linearGradient>
          <linearGradient
            id="paint11_linear_7_127"
            x1="18.8718"
            y1="22.5696"
            x2="26.2958"
            y2="22.5696"
            gradientUnits="userSpaceOnUse"
          >
            <stop stop-color="#3261E9" />
            <stop offset="1" stop-color="#1C1C42" />
          </linearGradient>
          <linearGradient
            id="paint12_linear_7_127"
            x1="10.0535"
            y1="13.9234"
            x2="16.2401"
            y2="13.9234"
            gradientUnits="userSpaceOnUse"
          >
            <stop stop-color="#3261E9" />
            <stop offset="1" stop-color="#1C1C42" />
          </linearGradient>
          <linearGradient
            id="paint13_linear_7_127"
            x1="-2.81823"
            y1="30.8643"
            x2="23.2035"
            y2="30.8643"
            gradientUnits="userSpaceOnUse"
          >
            <stop stop-color="#3261E9" />
            <stop offset="1" stop-color="#1C1C42" />
          </linearGradient>
        </defs>
      </svg>