<svg width="11" height="10" viewBox="0 0 11 10" fill="none" xmlns="http://www.w3.org/2000/svg">
<path d="M1.82882 1C1.68 1.00256 1.53473 1.04587 1.4088 1.1252C1.28287 1.20454 1.18109 1.31688 1.11453 1.45C1.03942 1.58293 0.999948 1.73303 0.999948 1.88571C0.999948 2.0384 1.03942 2.18849 1.11453 2.32143L4.93596 8.5C5.00073 8.63444 5.10212 8.74786 5.22847 8.82724C5.35483 8.90663 5.50102 8.94874 5.65025 8.94874C5.79947 8.94874 5.94566 8.90663 6.07202 8.82724C6.19838 8.74786 6.29977 8.63444 6.36453 8.5L10.1574 2.32143C10.2325 2.18849 10.272 2.0384 10.272 1.88571C10.272 1.73303 10.2325 1.58293 10.1574 1.45C10.0908 1.31688 9.98905 1.20454 9.86312 1.1252C9.73719 1.04587 9.59192 1.00256 9.4431 1L1.82882 1Z" stroke="white" stroke-linecap="round" stroke-linejoin="round"/>
</svg>
