<svg xmlns="http://www.w3.org/2000/svg" width="11" height="11" viewBox="0 0 11 11" fill="none">
  <g opacity="0.7">
    <path d="M5.5 3.76924V2.73077" stroke="#1C1C42" stroke-linecap="round" stroke-linejoin="round"/>
    <path d="M4.46167 6.53846C4.46167 7.05769 4.92552 7.23076 5.50013 7.23076C6.07475 7.23076 6.53859 7.23076 6.53859 6.53846C6.53859 5.5 4.46167 5.5 4.46167 4.46153C4.46167 3.76923 4.92552 3.76923 5.50013 3.76923C6.07475 3.76923 6.53859 4.0323 6.53859 4.46153" stroke="#1C1C42" stroke-linecap="round" stroke-linejoin="round"/>
    <path d="M5.50024 7.23077V8.26923" stroke="#1C1C42" stroke-linecap="round" stroke-linejoin="round"/>
    <path d="M5.5 10C7.98528 10 10 7.98528 10 5.5C10 3.01472 7.98528 1 5.5 1C3.01472 1 1 3.01472 1 5.5C1 7.98528 3.01472 10 5.5 10Z" stroke="#1C1C42" stroke-linecap="round" stroke-linejoin="round"/>
  </g>
</svg>