<svg xmlns="http://www.w3.org/2000/svg" width="12" height="12" viewBox="0 0 12 12" fill="none">
  <g opacity="0.7">
    <path d="M2.96436 6.10764V4.04121C2.97049 3.63502 3.05672 3.23403 3.21809 2.86123C3.37947 2.48842 3.61282 2.15112 3.90478 1.86865C4.19673 1.58618 4.54156 1.3641 4.91949 1.21512C5.29743 1.06615 5.70104 0.993214 6.10721 1.0005V1.0005C6.51338 0.993214 6.917 1.06615 7.29493 1.21512C7.67287 1.3641 8.01769 1.58618 8.30965 1.86865C8.60161 2.15112 8.83496 2.48842 8.99633 2.86123C9.15771 3.23403 9.24393 3.63502 9.25007 4.04121V6.10764" stroke="#1C1C42" stroke-linecap="round" stroke-linejoin="round"/>
    <path d="M1.78571 4.92906H2.57143C2.67562 4.92906 2.77555 4.97045 2.84922 5.04413C2.9229 5.1178 2.96429 5.21773 2.96429 5.32192V7.67906C2.96429 7.78325 2.9229 7.88318 2.84922 7.95685C2.77555 8.03053 2.67562 8.07192 2.57143 8.07192H1.78571C1.57733 8.07192 1.37748 7.98914 1.23013 7.84179C1.08278 7.69444 1 7.49459 1 7.2862V5.71478C1 5.50639 1.08278 5.30654 1.23013 5.15919C1.37748 5.01184 1.57733 4.92906 1.78571 4.92906V4.92906Z" stroke="#1C1C42" stroke-linecap="round" stroke-linejoin="round"/>
    <path d="M10.4286 8.07193H9.64293C9.53873 8.07193 9.43881 8.03054 9.36513 7.95686C9.29146 7.88319 9.25007 7.78326 9.25007 7.67907V5.32193C9.25007 5.21774 9.29146 5.11781 9.36513 5.04414C9.43881 4.97046 9.53873 4.92907 9.64293 4.92907H10.4286C10.637 4.92907 10.8369 5.01185 10.9842 5.1592C11.1316 5.30655 11.2144 5.5064 11.2144 5.71479V7.28622C11.2144 7.4946 11.1316 7.69445 10.9842 7.8418C10.8369 7.98915 10.637 8.07193 10.4286 8.07193V8.07193Z" stroke="#1C1C42" stroke-linecap="round" stroke-linejoin="round"/>
    <path d="M7.67847 10.2326C8.09524 10.2326 8.49493 10.0671 8.78963 9.77238C9.08433 9.47768 9.2499 9.07798 9.2499 8.66121V6.89336" stroke="#1C1C42" stroke-linecap="round" stroke-linejoin="round"/>
    <path d="M7.6785 10.2326C7.6785 10.4931 7.57503 10.7429 7.39084 10.9271C7.20665 11.1113 6.95684 11.2148 6.69636 11.2148H5.51779C5.25731 11.2148 5.0075 11.1113 4.82331 10.9271C4.63912 10.7429 4.53564 10.4931 4.53564 10.2326C4.53564 9.97215 4.63912 9.72234 4.82331 9.53815C5.0075 9.35396 5.25731 9.25049 5.51779 9.25049H6.69636C6.95684 9.25049 7.20665 9.35396 7.39084 9.53815C7.57503 9.72234 7.6785 9.97215 7.6785 10.2326Z" stroke="#1C1C42" stroke-linecap="round" stroke-linejoin="round"/>
  </g>
</svg>