<svg xmlns="http://www.w3.org/2000/svg" width="9" height="12" viewBox="0 0 9 12" fill="none">
  <g opacity="0.7">
    <path d="M8 4.63462C8 6.64577 4.5 11.5 4.5 11.5C4.5 11.5 1 6.64577 1 4.63462C1 3.67066 1.36875 2.74618 2.02513 2.06455C2.6815 1.38293 3.57174 1 4.5 1C5.42826 1 6.3185 1.38293 6.97487 2.06455C7.63125 2.74618 8 3.67066 8 4.63462V4.63462Z" stroke="#1C1C42" stroke-linecap="round" stroke-linejoin="round"/>
    <path d="M4.50016 5.84613C5.14449 5.84613 5.66683 5.3037 5.66683 4.63459C5.66683 3.96547 5.14449 3.42305 4.50016 3.42305C3.85583 3.42305 3.3335 3.96547 3.3335 4.63459C3.3335 5.3037 3.85583 5.84613 4.50016 5.84613Z" stroke="#1C1C42" stroke-linecap="round" stroke-linejoin="round"/>
  </g>
</svg>