<svg
            width="33"
            height="39"
            viewBox="0 0 32 31"
            fill="none"
            xmlns="http://www.w3.org/2000/svg"
          >
            <path
              d="M25.9642 11.0714C25.9642 16.585 15.9999 29.8929 15.9999 29.8929C15.9999 29.8929 6.03564 16.585 6.03564 11.0714C6.03564 8.42874 7.08545 5.89429 8.95412 4.02562C10.8228 2.15695 13.3572 1.10715 15.9999 1.10715C18.6426 1.10715 21.1771 2.15695 23.0457 4.02562C24.9144 5.89429 25.9642 8.42874 25.9642 11.0714V11.0714Z"
              stroke="#2E2E2E"
              stroke-opacity="0.8"
              stroke-width="1.2"
              stroke-linecap="round"
              stroke-linejoin="round"
            />
            <path
              d="M15.9999 14.3929C17.8343 14.3929 19.3213 12.9058 19.3213 11.0714C19.3213 9.23705 17.8343 7.75 15.9999 7.75C14.1655 7.75 12.6785 9.23705 12.6785 11.0714C12.6785 12.9058 14.1655 14.3929 15.9999 14.3929Z"
              stroke="#2E2E2E"
              stroke-opacity="0.8"
              stroke-width="1.2"
              stroke-linecap="round"
              stroke-linejoin="round"
            />
          </svg>