<svg xmlns="http://www.w3.org/2000/svg" width="33" height="33" viewBox="0 0 33 33" fill="none">
  <g filter="url(#filter0_d_0_56)">
    <rect x="4" width="25" height="25" rx="12.5" fill="#3261E9"/>
    <path d="M10.4789 14.6062C11.6421 14.6062 12.5851 13.6632 12.5851 12.5C12.5851 11.3368 11.6421 10.3938 10.4789 10.3938C9.31567 10.3938 8.37268 11.3368 8.37268 12.5C8.37268 13.6632 9.31567 14.6062 10.4789 14.6062Z" stroke="white" stroke-width="2" stroke-linecap="round" stroke-linejoin="round"/>
    <path d="M19.9566 9.86722C21.1198 9.86722 22.0628 8.92423 22.0628 7.761C22.0628 6.59776 21.1198 5.65477 19.9566 5.65477C18.7933 5.65477 17.8503 6.59776 17.8503 7.761C17.8503 8.92423 18.7933 9.86722 19.9566 9.86722Z" stroke="white" stroke-width="2" stroke-linecap="round" stroke-linejoin="round"/>
    <path d="M19.9566 19.3452C21.1198 19.3452 22.0628 18.4022 22.0628 17.239C22.0628 16.0758 21.1198 15.1328 19.9566 15.1328C18.7933 15.1328 17.8503 16.0758 17.8503 17.239C17.8503 18.4022 18.7933 19.3452 19.9566 19.3452Z" stroke="white" stroke-width="2" stroke-linecap="round" stroke-linejoin="round"/>
    <path d="M11.7529 10.8255L17.9136 8.26648" stroke="white" stroke-width="2" stroke-linecap="round" stroke-linejoin="round"/>
    <path d="M11.7529 14.1744L17.9136 16.7335" stroke="white" stroke-width="2" stroke-linecap="round" stroke-linejoin="round"/>
  </g>
  <defs>
    <filter id="filter0_d_0_56" x="0" y="0" width="33" height="33" filterUnits="userSpaceOnUse" color-interpolation-filters="sRGB">
      <feFlood flood-opacity="0" result="BackgroundImageFix"/>
      <feColorMatrix in="SourceAlpha" type="matrix" values="0 0 0 0 0 0 0 0 0 0 0 0 0 0 0 0 0 0 127 0" result="hardAlpha"/>
      <feOffset dy="4"/>
      <feGaussianBlur stdDeviation="2"/>
      <feComposite in2="hardAlpha" operator="out"/>
      <feColorMatrix type="matrix" values="0 0 0 0 0 0 0 0 0 0 0 0 0 0 0 0 0 0 0.25 0"/>
      <feBlend mode="normal" in2="BackgroundImageFix" result="effect1_dropShadow_0_56"/>
      <feBlend mode="normal" in="SourceGraphic" in2="effect1_dropShadow_0_56" result="shape"/>
    </filter>
  </defs>
</svg>